<svg id="Group_1153" data-name="Group 1153" xmlns="http://www.w3.org/2000/svg" xmlns:xlink="http://www.w3.org/1999/xlink" width="28.383" height="27.645" viewBox="0 0 28.383 27.645">
  <defs>
    <linearGradient id="linear-gradient" x1="0.164" y1="0.072" x2="0.85" y2="0.891" gradientUnits="objectBoundingBox">
      <stop offset="0" stop-color="#f0f"/>
      <stop offset="1" stop-color="orange"/>
    </linearGradient>
    <clipPath id="clip-path">
      <rect id="Rectangle_1183" data-name="Rectangle 1183" width="28.383" height="27.645" fill="url(#linear-gradient)"/>
    </clipPath>
  </defs>
  <g id="Group_1152" data-name="Group 1152" clip-path="url(#clip-path)">
    <path id="Path_18876" data-name="Path 18876" d="M0,14.494V10.287c.012-.082.03-.163.034-.245a31.659,31.659,0,0,1,.4-4.1A6.49,6.49,0,0,1,4.97.637a14.712,14.712,0,0,1,3.982-.6A28.353,28.353,0,0,1,14.9.357a6.663,6.663,0,0,1,5.2,3.886,11.137,11.137,0,0,1,.772,4.188,1.039,1.039,0,0,1-.989,1.094,1.075,1.075,0,0,1-1.146-.967c-.1-.768-.168-1.539-.278-2.3a4.523,4.523,0,0,0-3.309-3.633A24.04,24.04,0,0,0,8.03,2.29c-.314.03-.626.082-.939.124a6.586,6.586,0,0,0,.813.378,13.469,13.469,0,0,1,3.646,2.067,9.528,9.528,0,0,1,3.072,5.712A34.494,34.494,0,0,1,15,15.252a60.465,60.465,0,0,1-.107,6.635c-.022.324-.01.348.3.255a4.431,4.431,0,0,0,3.219-3.364,22.5,22.5,0,0,0,.335-2.6,1.048,1.048,0,0,1,1.011-.927,1.069,1.069,0,0,1,1.107.85,1.847,1.847,0,0,1,0,.579c-.049.467-.1.935-.153,1.4a7.326,7.326,0,0,1-.623,2.481,6.639,6.639,0,0,1-5.2,3.845.387.387,0,0,0-.373.33,4.416,4.416,0,0,1-.756,1.589,2.96,2.96,0,0,1-3.033,1.27,18.34,18.34,0,0,1-5.863-2.151,8.537,8.537,0,0,1-3.576-3.878A12.926,12.926,0,0,1,.146,16.45c-.038-.652-.1-1.3-.146-1.956" transform="translate(0 0)" fill="url(#linear-gradient)"/>
    <path id="Path_18877" data-name="Path 18877" d="M230.2,107.873h-.358c-2.241,0-4.483,0-6.724,0a1.075,1.075,0,1,1,.048-2.148q3.348.007,6.7,0a.525.525,0,0,0,.323-.036c-.011-.118-.109-.169-.176-.237q-.8-.806-1.6-1.606a1.083,1.083,0,1,1,1.479-1.58c.494.471.968.962,1.451,1.445q1.105,1.106,2.21,2.212a1.107,1.107,0,0,1,.005,1.745q-1.787,1.794-3.579,3.583a1.118,1.118,0,0,1-1.154.35,1.077,1.077,0,0,1-.443-1.82c.53-.552,1.081-1.085,1.62-1.628a.578.578,0,0,0,.2-.278" transform="translate(-205.597 -94.41)" fill="url(#linear-gradient)"/>
  </g>
</svg>
