<svg id="My_NFTs_icon" data-name="My NFTs icon" xmlns="http://www.w3.org/2000/svg" xmlns:xlink="http://www.w3.org/1999/xlink" width="54.848" height="54.848" viewBox="0 0 54.848 54.848">
  <defs>
    <clipPath id="clip-path">
      <rect id="Rectangle_1181" data-name="Rectangle 1181" width="45.647" height="49.203" fill="#606060"/>
    </clipPath>
  </defs>
  <rect id="Rectangle_1146" data-name="Rectangle 1146" width="54.848" height="54.848" fill="rgba(255,71,71,0)"/>
  <g id="Group_1147" data-name="Group 1147" transform="translate(4.6 3.214)">
    <g id="Group_1147-2" data-name="Group 1147" clip-path="url(#clip-path)">
      <path id="Path_18872" data-name="Path 18872" d="M45.64,24.6c0,2.582.017,5.164,0,7.746a8.566,8.566,0,0,1-4.54,7.8Q34.185,44.131,27.212,48a8.624,8.624,0,0,1-8.817-.02Q11.444,44.126,4.559,40.15A8.516,8.516,0,0,1,.02,32.4q-.041-7.8,0-15.595a8.489,8.489,0,0,1,4.5-7.719q6.926-4,13.924-7.884a8.584,8.584,0,0,1,8.811.022Q34.2,5.1,41.088,9.062a8.568,8.568,0,0,1,4.547,7.8c.022,2.582,0,5.164,0,7.746m-42.9-.047c0,2.582-.009,5.165,0,7.747a5.99,5.99,0,0,0,3.227,5.506q6.845,3.891,13.7,7.757a6.019,6.019,0,0,0,6.254.024q6.911-3.88,13.794-7.807a5.926,5.926,0,0,0,3.179-5.43q.027-7.747,0-15.5a5.924,5.924,0,0,0-3.18-5.429Q32.839,7.506,25.93,3.624a6.015,6.015,0,0,0-6.254.026Q12.842,7.507,6.016,11.38a6.036,6.036,0,0,0-3.273,5.584q-.007,3.8,0,7.594" transform="translate(0.001 0)" fill="#606060"/>
      <path id="Path_18873" data-name="Path 18873" d="M31.7,52.334c0-2.377.037-4.755-.011-7.13a5,5,0,0,1,2.832-4.871c4.464-2.453,8.88-5,13.312-7.508a4.485,4.485,0,0,1,4.722.019q6.781,3.846,13.572,7.673a4.567,4.567,0,0,1,2.508,4.224q.019,7.618,0,15.236a4.5,4.5,0,0,1-2.418,4.172q-6.877,3.884-13.752,7.771a4.431,4.431,0,0,1-4.633-.024L35.647,65c-.58-.328-1.168-.644-1.738-.99A4.511,4.511,0,0,1,31.7,59.875q-.005-3.771,0-7.541M42.21,55.619c-.331-.657-.63-1.247-.926-1.839q-2.156-4.31-4.307-8.622a.849.849,0,0,0-1.021-.561c-.486.112-.614.492-.627.936,0,.051,0,.1,0,.154q0,6.667,0,13.334a1.993,1.993,0,0,0,.044.508.809.809,0,0,0,1.566.032A2.314,2.314,0,0,0,37,58.848q0-4.539,0-9.077c0-.187-.061-.4.086-.58a1.324,1.324,0,0,1,.341.54Q39.819,54.5,42.2,59.269a4.862,4.862,0,0,0,.3.537.768.768,0,0,0,.9.311.747.747,0,0,0,.573-.706,3.438,3.438,0,0,0,.008-.359q0-6.692,0-13.385a2.258,2.258,0,0,0-.015-.409.755.755,0,0,0-.771-.682c-.538-.023-.822.306-.823.989,0,3.111,0,6.222-.006,9.333a.9.9,0,0,1-.159.721m4.506-3.267q0,3.284,0,6.567c0,.863.236,1.218.812,1.229.6.011.857-.365.858-1.248,0-1.693.02-3.387-.01-5.079-.01-.531.177-.682.681-.665.905.031,1.813.014,2.719.005.606-.006.927-.284.937-.781.01-.522-.317-.813-.95-.819-.941-.008-1.881-.017-2.822,0-.424.009-.566-.153-.561-.572q.028-2.129,0-4.258c-.006-.423.141-.569.563-.564,1.419.018,2.839.007,4.258.006.462,0,.925.016,1.385-.013a.829.829,0,0,0,.778-.808.789.789,0,0,0-.789-.781c-.136-.012-.273-.01-.41-.01q-3.13,0-6.259,0c-.977,0-1.189.221-1.19,1.221q0,3.284,0,6.567m13.135.593q0,3,0,6a2.689,2.689,0,0,0,.021.511.757.757,0,0,0,.767.688.725.725,0,0,0,.818-.615,3.4,3.4,0,0,0,.062-.711c0-4,.009-8-.006-12,0-.484.134-.677.636-.649.631.035,1.265.015,1.9,0a.873.873,0,0,0,.956-.8c.015-.464-.352-.8-.926-.806q-3.386-.013-6.772,0c-.6,0-.942.311-.938.786s.389.811.982.819c.633.008,1.267.027,1.9-.005.476-.024.617.157.613.621-.02,2.052-.008,4.1-.008,6.156" transform="translate(-27.345 -27.753)" fill="#606060"/>
    </g>
  </g>
</svg>
