<svg id="Settings_icon" data-name="Settings icon" xmlns="http://www.w3.org/2000/svg" xmlns:xlink="http://www.w3.org/1999/xlink" width="54.848" height="54.848" viewBox="0 0 54.848 54.848">
  <defs>
    <clipPath id="clip-path">
      <rect id="Rectangle_1182" data-name="Rectangle 1182" width="44.577" height="46.369" fill="#606060"/>
    </clipPath>
  </defs>
  <rect id="Rectangle_1146" data-name="Rectangle 1146" width="54.848" height="54.848" fill="rgba(255,71,71,0)"/>
  <g id="Group_1149" data-name="Group 1149" transform="translate(5.135 4.239)">
    <g id="Group_1148" data-name="Group 1148" transform="translate(0 0)" clip-path="url(#clip-path)">
      <path id="Path_18874" data-name="Path 18874" d="M6.806,7.006a3.387,3.387,0,0,1,1.574.521,5.057,5.057,0,0,0,7.144-3.19,5.7,5.7,0,0,0,.18-1.318A2.993,2.993,0,0,1,18.757.006q3.532-.012,7.064,0a3,3,0,0,1,3.064,3.007A5.051,5.051,0,0,0,36.4,7.432a3.03,3.03,0,0,1,4.292,1.224c1.122,1.92,2.241,3.844,3.335,5.781a3.023,3.023,0,0,1-1.14,4.475,5.051,5.051,0,0,0-.009,8.538,3.033,3.033,0,0,1,1.129,4.521c-1.086,1.92-2.2,3.827-3.308,5.732a3.037,3.037,0,0,1-4.291,1.24A5.064,5.064,0,0,0,29.276,41.4a4.846,4.846,0,0,0-.389,1.837,3.006,3.006,0,0,1-3.17,3.125q-3.449.005-6.9,0A3,3,0,0,1,15.7,43.3a5.013,5.013,0,0,0-7.353-4.417A3.256,3.256,0,0,1,3.764,37.53c-1.048-1.981-2.232-3.891-3.34-5.841a2.926,2.926,0,0,1,.185-3.3A3.838,3.838,0,0,1,1.75,27.43,5.054,5.054,0,0,0,2.8,19.852a5.13,5.13,0,0,0-1.193-.991A2.983,2.983,0,0,1,.476,14.594c1.142-2.037,2.319-4.055,3.5-6.069A3,3,0,0,1,6.806,7.006m15.475,7.319a8.818,8.818,0,0,0-8.823,8.885,8.835,8.835,0,0,0,17.669-.023,8.816,8.816,0,0,0-8.846-8.862" transform="translate(0 0)" fill="#606060"/>
      <path id="Path_18875" data-name="Path 18875" d="M57.024,54.085a5.378,5.378,0,1,1-5.351-5.377,5.333,5.333,0,0,1,5.351,5.377" transform="translate(-29.353 -30.901)" fill="#606060"/>
    </g>
  </g>
</svg>
